<svg width="1440" height="828" viewBox="0 0 1440 828" fill="none" xmlns="http://www.w3.org/2000/svg">
<path d="M1680 828L-240 828L-240.001 191.884C-240.001 191.884 -115.501 127.281 -5.00055 140.915C84.4995 151.958 119.999 200.379 194.499 224.365C355.596 276.23 388.604 230.356 480.999 162.402C622.999 57.9649 876 67.9589 1126.5 141.914C1258.89 180.999 1354.18 184.787 1534.5 88.4466C1614 45.9722 1680 0 1680 0L1680 828Z" fill="#DFDFDF"/>
<path d="M1680 828L-240.001 828L-240.001 225.364C-240.001 225.364 -126.501 144.912 -10.0008 154.407C116.499 164.716 153.999 225.364 268.499 225.364C350.999 225.364 434.499 200.879 460.999 182.89C621.146 74.177 830.499 88.4466 1040 144.912C1209.37 190.563 1270.5 196.381 1413 144.912C1555.5 93.4436 1680 19.9879 1680 19.9879L1680 828Z" fill="#E30613"/>
</svg>
