<svg width="1440" height="610" viewBox="0 0 1440 610" fill="none" xmlns="http://www.w3.org/2000/svg">
<path d="M-239.5 19.9961L1680 19.9961V383.428C1680 383.428 1477.05 282.334 1270.11 317.863C1147.8 338.862 1149.14 477.292 1046.17 523.772C908.31 585.996 800.702 452.145 617.277 483.789C489.81 505.78 467.816 603.736 271.367 609.733C91.9137 615.212 97.0079 534.651 -32.054 511.905C-154.022 490.409 -239.5 518.403 -239.5 518.403V19.9961Z" fill="#DFDFDF"/>
<path d="M-240 0H1680V361.933C1680 361.933 1462.56 270.589 1277.1 329.719C1158.88 367.415 1143.72 478.566 1025.67 516.776C866.212 568.392 794.501 442.303 645.269 466.894C536.298 484.852 511.304 576.635 294.361 597.585C127.186 613.729 101.035 585.977 0.437378 539.722C-122.031 483.41 -240 501.407 -240 501.407V0Z" fill="#E30613"/>
</svg>
