<svg width="200" height="55" viewBox="0 0 200 55" fill="none" xmlns="http://www.w3.org/2000/svg">
<g clip-path="url(#clip0_109_528)">
<path d="M63.8535 52.6082C63.1786 52.8456 62.4685 52.9561 61.7565 52.9346C61.3608 52.9415 60.9676 52.8687 60.5983 52.7203C60.2608 52.5829 59.9564 52.37 59.7062 52.0967C59.4501 51.8168 59.2515 51.4853 59.1224 51.1225C58.9802 50.7002 58.9106 50.2549 58.9169 49.8073C58.9144 49.3802 58.9726 48.955 59.0897 48.5457C59.1982 48.19 59.371 47.8593 59.5988 47.5715C59.8211 47.2909 60.1023 47.0675 60.4208 46.9187C60.7704 46.7568 61.1499 46.677 61.5324 46.6849C62.0994 46.6779 62.6556 46.8475 63.1296 47.172V43.9084L63.8535 43.772V52.6082ZM63.1296 47.8686C63.0493 47.8045 62.965 47.7459 62.8774 47.6932C62.7642 47.6288 62.6472 47.5719 62.5271 47.5227C62.3853 47.4628 62.2383 47.4172 62.0881 47.3864C61.9273 47.3483 61.7627 47.3303 61.5977 47.3328C61.2878 47.3232 60.9802 47.3917 60.701 47.5325C60.4659 47.6562 60.2638 47.8386 60.1126 48.0634C59.9571 48.2968 59.8475 48.5601 59.7903 48.838C59.7223 49.1496 59.6879 49.4682 59.6876 49.7878C59.6381 50.4557 59.839 51.1175 60.248 51.634C60.4425 51.8444 60.6774 52.0096 60.9374 52.1187C61.1974 52.2278 61.4765 52.2784 61.7565 52.2672C62.0454 52.2735 62.3344 52.2556 62.6206 52.2137C62.7892 52.1893 62.9561 52.1535 63.1203 52.1065L63.1296 47.8686Z" fill="#1D1D1B"/>
<path d="M66.6698 44.9703C66.6739 45.0494 66.6618 45.1285 66.6345 45.2024C66.6071 45.2763 66.565 45.3433 66.511 45.3989C66.4082 45.4986 66.273 45.5539 66.1327 45.5539C65.9923 45.5539 65.8572 45.4986 65.7544 45.3989C65.6526 45.2823 65.5963 45.1304 65.5963 44.9727C65.5963 44.8151 65.6526 44.6631 65.7544 44.5465C65.8572 44.4469 65.9923 44.3915 66.1327 44.3915C66.273 44.3915 66.4082 44.4469 66.511 44.5465C66.5644 44.6016 66.6061 44.6678 66.6335 44.7408C66.6608 44.8138 66.6732 44.892 66.6698 44.9703ZM66.5016 52.8079H65.7777V46.7921H66.5016V52.8079Z" fill="#1D1D1B"/>
<path d="M72.1855 52.1211C72.1217 52.1715 72.0546 52.2171 71.9847 52.2575C71.8769 52.3157 71.7662 52.3677 71.6531 52.4134C71.5091 52.4707 71.3607 52.5147 71.2094 52.5449C70.6948 52.6438 70.1646 52.6052 69.6682 52.4329C69.3625 52.3282 69.0832 52.1534 68.8508 51.9214C68.6045 51.6652 68.412 51.3583 68.2857 51.0202C68.1354 50.5898 68.0641 50.1337 68.0756 49.6758C68.0712 49.2709 68.1361 48.8684 68.267 48.4872C68.3811 48.128 68.5638 47.7966 68.8041 47.513C69.0448 47.2404 69.3397 47.0259 69.6682 46.8846C70.0308 46.7289 70.4203 46.6526 70.8124 46.6606C71.2444 46.6508 71.6763 46.6867 72.1014 46.7677C72.4237 46.8408 72.6899 46.9139 72.9001 46.9821V52.4767C72.9365 52.8334 72.8949 53.194 72.7784 53.5315C72.6619 53.869 72.4736 54.1746 72.2275 54.4252C71.6365 54.8528 70.9226 55.0557 70.2053 55C69.8671 55.0027 69.5295 54.9733 69.1965 54.9123C68.9336 54.8639 68.6745 54.7955 68.4212 54.7077L68.5659 54.0209C68.8004 54.1263 69.0468 54.2 69.2992 54.2401C69.6068 54.3043 69.9196 54.3369 70.2333 54.3375C70.7594 54.3839 71.2846 54.2374 71.7185 53.9234C71.8908 53.7371 72.022 53.5136 72.1026 53.2687C72.1833 53.0238 72.2116 52.7634 72.1855 52.5059V52.1211ZM72.1855 47.5325C72.0594 47.4935 71.8959 47.4594 71.6951 47.4205C71.4102 47.3819 71.123 47.3656 70.8358 47.3718C70.5506 47.3655 70.2673 47.4219 70.0044 47.5374C69.7655 47.65 69.5534 47.8164 69.3833 48.0245C69.2064 48.2388 69.0743 48.4894 68.9956 48.76C68.9009 49.0618 68.8552 49.3778 68.8602 49.6953C68.8528 50.0431 68.905 50.3895 69.0143 50.7182C69.1062 50.9737 69.2441 51.2085 69.4206 51.4099C69.5825 51.5832 69.7808 51.7149 69.9998 51.7948C70.2097 51.8798 70.4331 51.9228 70.6583 51.9214C70.9636 51.9244 71.2671 51.8717 71.555 51.7655C71.7835 51.691 71.9972 51.5738 72.1855 51.4197V47.5325Z" fill="#1D1D1B"/>
<path d="M75.7163 44.9703C75.7193 45.0492 75.7067 45.128 75.6794 45.2017C75.6521 45.2754 75.6106 45.3426 75.5575 45.3989C75.5075 45.4497 75.4483 45.4897 75.3834 45.5164C75.3184 45.5432 75.249 45.5562 75.1792 45.5548C75.0704 45.5478 74.9657 45.5085 74.8774 45.4417C74.7891 45.3749 74.7209 45.2832 74.6808 45.1775C74.6406 45.0717 74.6301 44.9562 74.6506 44.8445C74.671 44.7327 74.7216 44.6294 74.7963 44.5465C74.8468 44.4951 74.9068 44.4548 74.9726 44.4281C75.0384 44.4013 75.1086 44.3886 75.1792 44.3906C75.2492 44.3881 75.3189 44.4006 75.384 44.4274C75.4491 44.4543 75.5081 44.4948 75.5575 44.5465C75.6103 44.6021 75.6515 44.6684 75.6788 44.7413C75.7062 44.8142 75.7189 44.8921 75.7163 44.9703ZM75.5482 52.8079H74.8196V46.7921H75.5482V52.8079Z" fill="#1D1D1B"/>
<path d="M78.1449 46.7921H80.4474V47.4302H78.1449V50.6305C78.1381 50.9108 78.1664 51.1908 78.229 51.4635C78.2705 51.6441 78.3539 51.8114 78.4718 51.9506C78.5726 52.0664 78.7044 52.1478 78.8501 52.1844C79.0033 52.2211 79.16 52.2391 79.3172 52.238C79.5673 52.2472 79.817 52.2109 80.0551 52.1308C80.2051 52.0753 80.3504 52.0069 80.4895 51.9262L80.6669 52.5546C80.4952 52.6581 80.3116 52.7383 80.1205 52.7933C79.8479 52.8874 79.5622 52.9335 79.2752 52.9297C78.9687 52.9385 78.6632 52.889 78.3738 52.7836C78.1447 52.6953 77.944 52.5417 77.7946 52.3403C77.6598 52.1267 77.5692 51.8861 77.5284 51.634C77.4639 51.2891 77.4342 50.9381 77.4397 50.5867V45.019L78.1636 44.8777L78.1449 46.7921Z" fill="#1D1D1B"/>
<path d="M83.5439 46.6459C83.8726 46.6369 84.1997 46.6965 84.506 46.8213C84.7531 46.9197 84.9741 47.0784 85.1505 47.2841C85.3175 47.4892 85.4387 47.7304 85.5054 47.9904C85.5824 48.2773 85.6201 48.5741 85.6175 48.8721V52.6715C85.5103 52.7035 85.401 52.7279 85.2906 52.7446L84.8236 52.8323C84.6368 52.8664 84.4313 52.8907 84.2024 52.9102C83.9736 52.9297 83.7354 52.9395 83.5018 52.9395C83.2183 52.9429 82.9356 52.9068 82.6612 52.8323C82.418 52.77 82.1893 52.6574 81.9886 52.501C81.7992 52.3468 81.6472 52.1482 81.545 51.9214C81.4276 51.6475 81.3717 51.3493 81.3815 51.0495C81.3746 50.7608 81.4355 50.4749 81.559 50.2165C81.6779 49.9823 81.8514 49.783 82.0634 49.6368C82.2978 49.4765 82.5593 49.3641 82.834 49.3056C83.1528 49.231 83.4787 49.195 83.8054 49.1984C83.9143 49.1916 84.0235 49.1916 84.1324 49.1984C84.2507 49.1984 84.3628 49.213 84.4686 49.2423L84.7488 49.3007C84.8037 49.3117 84.857 49.3297 84.9076 49.3543V48.9792C84.9101 48.7754 84.896 48.5717 84.8656 48.3703C84.8391 48.1788 84.7721 47.9957 84.6694 47.8345C84.564 47.6701 84.4191 47.5374 84.2491 47.4497C84.0219 47.3433 83.7741 47.2932 83.5252 47.3035C83.2111 47.2934 82.8971 47.3262 82.5911 47.401C82.381 47.4594 82.2315 47.513 82.1241 47.5471L82.0213 46.8846C82.2114 46.807 82.4086 46.7498 82.6098 46.7141C82.9182 46.6588 83.2311 46.636 83.5439 46.6459ZM83.6093 52.2624C83.8895 52.2624 84.137 52.2526 84.3519 52.2331C84.562 52.2331 84.7395 52.1893 84.889 52.1601V50.0411C84.7639 49.9862 84.6341 49.9438 84.5013 49.9145C84.2583 49.8654 84.0108 49.8441 83.7634 49.8511C83.576 49.8526 83.3889 49.8657 83.2029 49.8901C83.0166 49.9167 82.8363 49.9778 82.6705 50.0704C82.5106 50.1548 82.3728 50.2785 82.2689 50.4308C82.155 50.6145 82.0995 50.831 82.1101 51.0495C82.0969 51.2488 82.1272 51.4487 82.1988 51.634C82.2653 51.7841 82.3683 51.9135 82.4977 52.0091C82.6405 52.1056 82.7987 52.1749 82.9648 52.2137C83.174 52.2553 83.3871 52.2716 83.5999 52.2624H83.6093Z" fill="#1D1D1B"/>
<path d="M88.9335 52.9151C88.7169 52.9137 88.5016 52.8809 88.2937 52.8177C88.1205 52.7666 87.9607 52.675 87.8266 52.5498C87.6955 52.4145 87.5991 52.247 87.5464 52.0626C87.4768 51.8312 87.4452 51.5891 87.453 51.3466V43.9084L88.1769 43.772V51.3417C88.1707 51.493 88.1881 51.6444 88.2283 51.7899C88.2534 51.8926 88.3056 51.9859 88.3791 52.0591C88.4526 52.1323 88.5444 52.1825 88.6439 52.2039C88.7701 52.2387 88.8979 52.2664 89.0269 52.2867L88.9335 52.9151Z" fill="#1D1D1B"/>
<path d="M89.6714 49.0718H92.1981V49.8024H89.6714V49.0718Z" fill="#1D1D1B"/>
<path d="M95.2199 46.6459C95.5501 46.6369 95.8787 46.6965 96.1866 46.8213C96.4332 46.9209 96.654 47.0794 96.8311 47.2841C96.9981 47.4892 97.1194 47.7304 97.1861 47.9904C97.263 48.2773 97.3008 48.5741 97.2982 48.872V52.6715C97.1909 52.7035 97.0817 52.7279 96.9713 52.7446L96.5042 52.8323C96.3127 52.8664 96.1072 52.8907 95.8831 52.9102C95.6589 52.9297 95.416 52.9394 95.1825 52.9394C94.8989 52.9431 94.6162 52.9071 94.3418 52.8323C94.0986 52.77 93.8699 52.6574 93.6693 52.501C93.4729 52.3479 93.3131 52.1495 93.2022 51.9214C93.0888 51.6464 93.0346 51.3487 93.0434 51.0494C93.0365 50.7608 93.0975 50.4749 93.2209 50.2165C93.3371 49.9802 93.5111 49.7803 93.7253 49.6368C93.9598 49.4765 94.2213 49.3641 94.4959 49.3056C94.8147 49.231 95.1407 49.195 95.4674 49.1984C95.5763 49.1915 95.6854 49.1915 95.7943 49.1984C95.9126 49.1984 96.0247 49.213 96.1306 49.2422L96.4108 49.3007C96.4652 49.3134 96.5184 49.3313 96.5696 49.3543V48.9792C96.5697 48.7755 96.5557 48.572 96.5276 48.3703C96.4989 48.1793 96.4321 47.9968 96.3314 47.8345C96.2249 47.6711 96.0802 47.5387 95.9111 47.4497C95.6837 47.3438 95.436 47.2938 95.1872 47.3035C94.8731 47.2934 94.559 47.3262 94.2531 47.401C94.0429 47.4594 93.8888 47.513 93.786 47.5471L93.6833 46.8846C93.8731 46.8063 94.0704 46.7491 94.2718 46.7141C94.5848 46.6578 94.9024 46.635 95.2199 46.6459ZM95.2899 52.2624C95.5701 52.2624 95.8177 52.2526 96.0325 52.2331C96.2427 52.2331 96.4201 52.1893 96.5696 52.1601V50.0411C96.4445 49.9862 96.3147 49.9438 96.182 49.9145C95.9389 49.8654 95.6915 49.8441 95.444 49.8511C95.2566 49.8525 95.0695 49.8655 94.8836 49.8901C94.6973 49.9167 94.517 49.9778 94.3512 50.0703C94.1908 50.156 94.0517 50.2794 93.9448 50.4308C93.8349 50.6161 93.7811 50.8317 93.7907 51.0494C93.7855 51.2454 93.8222 51.4401 93.8981 51.6194C93.963 51.7705 94.0664 51.9003 94.197 51.9944C94.3395 52.0917 94.4978 52.161 94.6641 52.199C94.8651 52.2437 95.0703 52.265 95.2759 52.2624H95.2899Z" fill="#1D1D1B"/>
<path d="M102.459 47.4302H99.8809V52.7885H99.1523V46.7921H102.459V47.4302Z" fill="#1D1D1B"/>
<path d="M103.239 49.7927C103.23 49.323 103.305 48.8557 103.458 48.4142C103.588 48.0551 103.782 47.7247 104.028 47.4399C104.249 47.1817 104.524 46.98 104.832 46.8505C105.128 46.7229 105.445 46.6567 105.766 46.6557C106.082 46.6411 106.397 46.6985 106.69 46.8239C106.983 46.9492 107.246 47.1395 107.461 47.3815C107.928 48.0168 108.152 48.8098 108.091 49.6076C108.091 49.6661 108.091 49.7294 108.091 49.7927C108.091 49.856 108.091 49.9096 108.091 49.9681H104.01C103.992 50.5813 104.178 51.182 104.537 51.6681C104.74 51.8798 104.985 52.0424 105.254 52.1442C105.524 52.2461 105.812 52.2848 106.097 52.2575C106.412 52.2687 106.727 52.2309 107.031 52.1455C107.203 52.0905 107.372 52.0238 107.536 51.9458L107.666 52.5985C107.48 52.6939 107.284 52.7674 107.083 52.8177C106.752 52.9113 106.411 52.9555 106.069 52.9492C105.627 52.9608 105.188 52.8814 104.775 52.7154C104.436 52.574 104.133 52.3503 103.893 52.0627C103.66 51.7799 103.489 51.4473 103.393 51.0884C103.282 50.6665 103.23 50.2301 103.239 49.7927ZM107.34 49.3056C107.355 48.7831 107.206 48.2697 106.915 47.8442C106.776 47.6701 106.6 47.532 106.402 47.4407C106.203 47.3494 105.987 47.3074 105.77 47.3182C105.529 47.3134 105.29 47.3702 105.074 47.4838C104.87 47.5912 104.688 47.7384 104.537 47.9173C104.383 48.1061 104.263 48.3223 104.182 48.5554C104.097 48.798 104.047 49.0525 104.033 49.3105L107.34 49.3056Z" fill="#1D1D1B"/>
<path d="M114.294 52.8079H113.57V50.0022H110.431V52.8079H109.707V46.7921H110.431V49.364H113.57V46.7921H114.294V52.8079Z" fill="#1D1D1B"/>
<path d="M119.936 46.7921V47.4302H118.039V52.7885H117.311V47.4302H115.443V46.7921H119.936Z" fill="#1D1D1B"/>
<path d="M123.452 52.9395C123.048 52.9486 122.646 52.8724 122.271 52.7154C121.939 52.5799 121.644 52.3626 121.411 52.0821C121.18 51.7951 121.004 51.4643 120.893 51.1079C120.771 50.6963 120.711 50.2674 120.715 49.8365C120.71 49.3989 120.771 48.9631 120.898 48.5457C121.008 48.1709 121.189 47.823 121.43 47.5227C121.66 47.2441 121.948 47.0227 122.271 46.8749C122.618 46.7178 122.994 46.6397 123.373 46.6459C123.668 46.6443 123.962 46.6736 124.251 46.7336C124.47 46.7697 124.682 46.8386 124.881 46.9382L124.699 47.5909C124.54 47.5089 124.373 47.4468 124.2 47.4058C123.952 47.3531 123.7 47.3286 123.448 47.3328C123.173 47.3149 122.898 47.3642 122.646 47.4767C122.393 47.5892 122.168 47.7617 121.991 47.9806C121.633 48.5178 121.459 49.1644 121.495 49.817C121.493 50.1454 121.531 50.4728 121.608 50.7913C121.671 51.0725 121.794 51.3354 121.967 51.5609C122.143 51.7748 122.366 51.9418 122.616 52.048C122.924 52.1756 123.253 52.2353 123.583 52.2234C123.848 52.231 124.113 52.1949 124.368 52.1162C124.528 52.0655 124.684 52.002 124.835 51.9263L124.989 52.5741C124.79 52.6801 124.578 52.7571 124.358 52.8031C124.063 52.8871 123.759 52.9329 123.452 52.9395Z" fill="#1D1D1B"/>
<path d="M130.084 46.7921V47.4302H128.188V52.7885H127.46V47.4302H125.591V46.7921H130.084Z" fill="#1D1D1B"/>
<path d="M133.078 46.6606C133.302 46.6606 133.545 46.6606 133.83 46.7044C134.101 46.7259 134.368 46.7916 134.619 46.8992C134.861 47.0047 135.073 47.1723 135.236 47.3864C135.416 47.6478 135.505 47.9659 135.488 48.2875C135.49 48.5702 135.403 48.8458 135.24 49.0718C135.069 49.2996 134.837 49.4691 134.573 49.5589C134.925 49.6337 135.243 49.8312 135.474 50.1191C135.668 50.3914 135.767 50.7249 135.754 51.0641C135.772 51.4059 135.69 51.7452 135.521 52.0383C135.366 52.2803 135.151 52.474 134.899 52.5985C134.625 52.7308 134.332 52.8148 134.031 52.8469C133.702 52.8886 133.372 52.9082 133.041 52.9054C132.687 52.9096 132.334 52.8836 131.985 52.8274C131.725 52.7834 131.468 52.7248 131.215 52.6521V46.9187C131.454 46.8411 131.699 46.7825 131.948 46.7434C132.322 46.6838 132.7 46.6561 133.078 46.6606ZM131.938 49.3056H133.255C133.63 49.3217 134.002 49.2413 134.339 49.0718C134.473 48.9988 134.583 48.8865 134.656 48.7488C134.729 48.6112 134.762 48.4541 134.75 48.2973C134.762 48.1036 134.711 47.9115 134.605 47.7517C134.508 47.6191 134.377 47.5178 134.227 47.4594C134.056 47.3867 133.874 47.3439 133.69 47.3328C133.49 47.3109 133.289 47.3011 133.087 47.3035C132.852 47.3013 132.616 47.3143 132.382 47.3425C132.232 47.3528 132.083 47.3789 131.938 47.4205V49.3056ZM131.938 49.934V52.1601C131.997 52.1809 132.059 52.194 132.121 52.199L132.41 52.2331C132.518 52.2331 132.634 52.2331 132.756 52.2624H133.111C133.353 52.2615 133.594 52.2452 133.835 52.2137C134.043 52.1872 134.247 52.1263 134.437 52.0334C134.601 51.9473 134.744 51.8221 134.853 51.6681C134.964 51.4886 135.018 51.2773 135.007 51.0641C135.013 50.8721 134.969 50.682 134.881 50.5136C134.787 50.3678 134.658 50.2503 134.507 50.1726C134.34 50.0833 134.16 50.0209 133.975 49.9875C133.754 49.9472 133.531 49.9277 133.307 49.9291L131.938 49.934Z" fill="#1D1D1B"/>
<path d="M142.232 49.8024C142.237 50.2428 142.171 50.6809 142.036 51.0982C141.918 51.4577 141.732 51.7889 141.489 52.0724C141.251 52.3492 140.958 52.5694 140.631 52.7182C140.304 52.8669 139.95 52.9407 139.593 52.9346C139.229 52.9407 138.869 52.8625 138.538 52.7056C138.22 52.5576 137.935 52.3419 137.702 52.0724C137.459 51.7889 137.273 51.4577 137.155 51.0982C136.894 50.2576 136.894 49.3522 137.155 48.5116C137.276 48.1534 137.461 47.8226 137.702 47.5374C137.933 47.2636 138.218 47.0444 138.538 46.8944C138.87 46.7397 139.23 46.6617 139.593 46.6654C139.96 46.6616 140.323 46.7397 140.658 46.8944C140.983 47.0357 141.274 47.2484 141.513 47.5179C141.753 47.8032 141.938 48.1339 142.059 48.4921C142.188 48.9154 142.246 49.3586 142.232 49.8024ZM141.461 49.8024C141.493 49.161 141.315 48.5274 140.957 48.005C140.792 47.795 140.584 47.6258 140.349 47.5096C140.113 47.3934 139.856 47.3331 139.596 47.3331C139.335 47.3331 139.078 47.3934 138.842 47.5096C138.607 47.6258 138.399 47.795 138.234 48.005C137.905 48.5415 137.729 49.1653 137.729 49.8024C137.729 50.4396 137.905 51.0634 138.234 51.5999C138.401 51.8076 138.609 51.9747 138.844 52.0894C139.079 52.204 139.336 52.2634 139.596 52.2634C139.855 52.2634 140.112 52.204 140.347 52.0894C140.582 51.9747 140.79 51.8076 140.957 51.5999C141.316 51.0782 141.494 50.444 141.461 49.8024Z" fill="#1D1D1B"/>
<path d="M28.9564 9.43066C32.2288 9.43066 34.7337 10.0558 36.4711 11.3061C38.2084 12.5563 39.0803 14.4707 39.0865 17.0491C39.0865 20.2576 37.5686 22.4334 34.5329 23.5764C34.9501 24.0993 35.4171 24.7374 35.934 25.4908C36.4571 26.241 36.9941 27.0544 37.5359 27.9264C38.0777 28.7983 38.6054 29.7043 39.1098 30.625C39.6142 31.5456 40.0439 32.4517 40.4549 33.3382H35.8452C35.428 32.5199 34.9797 31.695 34.5002 30.8637C34.0207 30.0323 33.5349 29.2205 33.043 28.4281C32.5542 27.6617 32.0684 26.9245 31.5858 26.2166C31.1188 25.5249 30.6518 24.9014 30.2408 24.3558C29.9372 24.3558 29.6756 24.3899 29.4608 24.3899H26.836V33.3382H22.7121V10.0103C23.7695 9.77528 24.8418 9.62062 25.9207 9.54757C27.0556 9.46963 28.0737 9.43066 28.9564 9.43066ZM29.26 13.1522C28.3882 13.1522 27.5802 13.1863 26.836 13.2545V20.9071H28.6388C29.5258 20.914 30.4122 20.857 31.2916 20.7366C31.9603 20.6521 32.609 20.4425 33.2065 20.1179C33.698 19.8478 34.1025 19.4327 34.3694 18.9245C34.6509 18.3304 34.7858 17.6724 34.7617 17.0102C34.781 16.3718 34.6461 15.7386 34.3694 15.1689C34.1085 14.6662 33.7167 14.2508 33.2392 13.9706C32.6949 13.6563 32.1022 13.4436 31.4878 13.3422C30.752 13.2104 30.0065 13.1469 29.26 13.1522Z" fill="#E30613"/>
<path d="M42.5239 24.4922C42.497 23.0834 42.7252 21.682 43.1964 20.3615C43.5935 19.2592 44.2022 18.2531 44.9852 17.4047C45.7076 16.6315 46.578 16.0257 47.5399 15.6268C48.4756 15.2356 49.4742 15.034 50.4822 15.0325C52.8392 15.0325 54.6793 15.794 56.0026 17.317C57.3259 18.8401 57.986 21.1133 57.9829 24.1366C57.9829 24.3656 57.9829 24.6237 57.9829 24.9063C57.9829 25.1888 57.9548 25.447 57.9362 25.671H46.6198C46.6363 26.2999 46.7738 26.9189 47.0241 27.4912C47.2745 28.0636 47.6325 28.5776 48.077 29.0029C48.941 29.792 50.188 30.1817 51.8133 30.1817C52.6981 30.1888 53.5812 30.0974 54.4474 29.9089C55.0859 29.7763 55.7113 29.5823 56.3155 29.3293L56.8433 32.7098C56.5523 32.8544 56.2509 32.9749 55.9419 33.0703C55.5589 33.1921 55.1199 33.309 54.6295 33.4113C54.1391 33.5136 53.6114 33.5964 53.0463 33.6646C52.4697 33.7356 51.8895 33.7698 51.3089 33.7669C49.9674 33.7988 48.6325 33.5623 47.3764 33.0703C46.3288 32.6485 45.3878 31.9819 44.6256 31.1218C43.8973 30.2775 43.3496 29.2812 43.0189 28.1991C42.6707 26.9977 42.5036 25.7472 42.5239 24.4922ZM54.0224 22.6461C54.0242 22.0961 53.9454 21.5491 53.7889 21.024C53.6521 20.5393 53.4252 20.0874 53.121 19.6941C52.8282 19.3195 52.4599 19.0168 52.0421 18.8076C51.5655 18.578 51.0444 18.4663 50.5196 18.4812C49.9647 18.4668 49.4144 18.5886 48.913 18.8368C48.4694 19.0667 48.0741 19.3863 47.75 19.777C47.4285 20.1715 47.1785 20.6238 47.0121 21.1116C46.8398 21.6082 46.7192 22.1226 46.6525 22.6461H54.0224Z" fill="#E30613"/>
<path d="M66.0346 29.451H61.9807V33.6792H66.0346V29.451Z" fill="#E30613"/>
<path d="M66.0346 15.7485H61.9807V19.9767H66.0346V15.7485Z" fill="#E30613"/>
<path d="M76.5944 15.0323C77.7182 15.0016 78.8386 15.1746 79.9057 15.5438C80.7209 15.833 81.4566 16.3244 82.0494 16.9759C82.5965 17.6177 82.9902 18.3856 83.1983 19.2166C83.4359 20.1575 83.5521 21.1273 83.5439 22.1003V32.9289C82.9274 33.0652 82.0073 33.2309 80.7744 33.416C79.3897 33.6192 77.9926 33.7169 76.5944 33.7082C75.652 33.7141 74.7121 33.6095 73.7921 33.3965C73.0127 33.2275 72.274 32.8962 71.6204 32.4223C71.0207 31.9584 70.5395 31.3478 70.2193 30.6443C69.859 29.7957 69.6866 28.8733 69.7149 27.9457C69.671 27.0403 69.8545 26.1386 70.2473 25.3299C70.6245 24.6324 71.1581 24.0408 71.8025 23.6055C72.4983 23.1372 73.2709 22.8069 74.0817 22.6313C74.9689 22.4332 75.8739 22.3352 76.7812 22.339C77.2417 22.3405 77.7017 22.3698 78.1589 22.4267C78.6761 22.4909 79.1892 22.5869 79.6955 22.7141V22.0662C79.6967 21.6062 79.6418 21.1479 79.532 20.7023C79.4293 20.279 79.2326 19.8868 78.9576 19.5576C78.6627 19.2141 78.2926 18.95 77.8787 18.7879C77.3373 18.5909 76.7659 18.4984 76.1927 18.5152C75.3465 18.5091 74.5012 18.5775 73.666 18.7197C73.031 18.8258 72.406 18.9888 71.7979 19.2069L71.3075 15.8604C72.024 15.6236 72.7561 15.4413 73.4979 15.3148C74.5196 15.1221 75.5561 15.0275 76.5944 15.0323ZM76.926 30.4348C77.8641 30.4594 78.8024 30.3909 79.7282 30.2302V25.6562C79.4219 25.5636 79.1098 25.4936 78.7941 25.4468C78.3304 25.3744 77.8619 25.3402 77.393 25.3445C76.9491 25.3452 76.5058 25.3794 76.0666 25.4468C75.6467 25.5062 75.2385 25.6344 74.857 25.8267C74.5069 25.9959 74.2069 26.26 73.9883 26.5915C73.7591 26.9623 73.645 27.3977 73.6614 27.8385C73.6614 28.8127 73.9509 29.4947 74.5441 29.8747C75.2704 30.2808 76.0886 30.4743 76.9119 30.4348H76.926Z" fill="#1D1D1B"/>
<path d="M87.425 24.4239C87.4156 23.1621 87.6146 21.9081 88.0135 20.7169C88.3806 19.6151 88.9537 18.6002 89.6995 17.7309C90.4436 16.8782 91.3546 16.2021 92.3709 15.7484C93.4906 15.2564 94.6962 15.0125 95.9111 15.0323C97.4813 15.0235 99.038 15.3363 100.493 15.953L99.6427 19.3335C99.139 19.1238 98.6186 18.9608 98.0875 18.8464C97.474 18.7056 96.8474 18.637 96.2193 18.6418C94.6625 18.6418 93.4825 19.1484 92.6792 20.1616C91.8759 21.1748 91.4711 22.6037 91.4649 24.4482C91.4649 26.2262 91.8525 27.6291 92.6138 28.6666C93.3751 29.7042 94.6688 30.2205 96.4809 30.2205C97.1505 30.221 97.8185 30.1524 98.4751 30.0159C99.0568 29.9101 99.6276 29.747 100.18 29.5288L100.736 32.9386C100.104 33.2313 99.438 33.4376 98.7553 33.5524C97.854 33.7376 96.9372 33.8289 96.0185 33.8252C94.7166 33.8569 93.4215 33.6202 92.2075 33.1286C91.1803 32.7011 90.2602 32.0347 89.5173 31.1801C88.7913 30.3188 88.2499 29.3058 87.9294 28.2087C87.5731 26.9823 87.4029 25.7052 87.425 24.4239Z" fill="#1D1D1B"/>
<path d="M103.636 10.7603L107.601 10.0784V15.4756H113.673V18.9243H107.601V26.2018C107.601 27.6339 107.819 28.6585 108.255 29.2755C108.691 29.8925 109.433 30.201 110.483 30.201C111.128 30.2114 111.772 30.1311 112.398 29.9623C112.847 29.8387 113.289 29.6907 113.724 29.5191L114.378 32.7973C113.79 33.047 113.188 33.2585 112.575 33.4306C111.721 33.6612 110.841 33.771 109.96 33.7569C108.916 33.7898 107.876 33.6145 106.896 33.2406C106.132 32.9462 105.459 32.4411 104.948 31.7793C104.444 31.0825 104.097 30.2769 103.93 29.4216C103.723 28.3837 103.624 27.3253 103.636 26.2651V10.7603Z" fill="#1D1D1B"/>
<path d="M121.944 10.2294C121.959 10.5731 121.903 10.9162 121.779 11.235C121.655 11.5538 121.466 11.8406 121.225 12.0755C120.763 12.5221 120.154 12.7663 119.525 12.7575C118.883 12.7723 118.26 12.528 117.787 12.0755C117.545 11.8409 117.356 11.5542 117.231 11.2355C117.106 10.9167 117.048 10.5734 117.063 10.2294C117.047 9.88012 117.104 9.53143 117.229 9.20699C117.354 8.88254 117.544 8.58995 117.787 8.3491C118.26 7.89664 118.883 7.65232 119.525 7.66714C120.154 7.65836 120.763 7.90255 121.225 8.3491C121.467 8.59039 121.656 8.88318 121.78 9.2076C121.904 9.53202 121.96 9.88049 121.944 10.2294ZM121.519 33.3185H117.558V15.4756H121.519V33.3185Z" fill="#1D1D1B"/>
<path d="M130.976 33.338C129.877 30.9966 128.753 28.3045 127.604 25.2617C126.398 22.0578 125.351 18.7915 124.466 15.4756H128.669C128.912 16.479 129.192 17.5539 129.51 18.7003C129.827 19.8547 130.164 21.0043 130.528 22.1539C130.892 23.3035 131.266 24.419 131.649 25.5004C132.032 26.5818 132.387 27.556 132.718 28.4231C133.045 27.556 133.396 26.5818 133.769 25.5004C134.143 24.419 134.51 23.3035 134.871 22.1539C135.251 21.0043 135.597 19.8531 135.908 18.7003C136.22 17.5474 136.503 16.4725 136.758 15.4756H140.854C139.967 18.7908 138.92 22.0571 137.716 25.2617C136.567 28.3013 135.443 30.9934 134.344 33.338H130.976Z" fill="#1D1D1B"/>
<path d="M143.787 16.0747C144.768 15.7989 145.763 15.5826 146.767 15.4269C148.119 15.2049 149.485 15.0958 150.854 15.1005C152.047 15.0618 153.237 15.2653 154.356 15.6996C155.228 16.0475 156 16.6228 156.598 17.3704C157.168 18.1349 157.564 19.0243 157.756 19.9716C157.993 21.0648 158.107 22.1829 158.097 23.3035V33.338H154.123V23.9465C154.133 23.1305 154.072 22.3153 153.941 21.5109C153.854 20.9291 153.654 20.3721 153.352 19.8742C153.087 19.4532 152.704 19.1282 152.255 18.9438C151.704 18.7349 151.121 18.6357 150.536 18.6515C150.011 18.6531 149.487 18.6873 148.967 18.7538C148.42 18.822 148.033 18.8805 147.752 18.9243V33.338H143.792L143.787 16.0747Z" fill="#1D1D1B"/>
<path d="M178.437 24.3898C178.453 25.7029 178.254 27.0093 177.848 28.2526C177.49 29.3524 176.921 30.365 176.176 31.2288C175.449 32.0474 174.562 32.6936 173.575 33.1237C172.512 33.5887 171.369 33.8208 170.217 33.8057C169.07 33.823 167.933 33.5908 166.878 33.1237C165.895 32.6862 165.013 32.0352 164.29 31.2142C163.544 30.3542 162.971 29.3472 162.604 28.2526C162.186 27.0138 161.98 25.7078 161.997 24.3946C161.979 23.0861 162.185 21.7848 162.604 20.5513C162.975 19.4581 163.553 18.4541 164.304 17.5994C165.031 16.7808 165.918 16.1346 166.906 15.7045C167.954 15.2496 169.081 15.0226 170.217 15.0372C171.357 15.0236 172.488 15.2506 173.542 15.7045C174.533 16.1287 175.421 16.7757 176.144 17.5994C176.887 18.4578 177.46 19.461 177.83 20.5513C178.248 21.7832 178.454 23.0829 178.437 24.3898ZM174.378 24.3898C174.378 22.6118 174.009 21.2089 173.281 20.1714C172.916 19.6872 172.451 19.2957 171.92 19.0265C171.39 18.7573 170.807 18.6174 170.217 18.6174C169.627 18.6174 169.044 18.7573 168.514 19.0265C167.983 19.2957 167.518 19.6872 167.153 20.1714C166.425 21.2089 166.056 22.6069 166.056 24.3898C166.056 26.1726 166.425 27.6145 167.153 28.6569C167.514 29.1461 167.978 29.5422 168.51 29.8148C169.041 30.0874 169.625 30.2292 170.217 30.2292C170.809 30.2292 171.393 30.0874 171.924 29.8148C172.455 29.5422 172.919 29.1461 173.281 28.6569C174.009 27.6145 174.378 26.1872 174.378 24.3898Z" fill="#1D1D1B"/>
<path d="M15.6598 3.78974V0H3.63356H0V3.78974V47.6056V51.4002H3.63356H15.6598V47.6056H3.63356V3.78974H15.6598Z" fill="#1D1D1B"/>
<path d="M196.366 0H184.336V3.78974H196.366V47.6056H184.336V51.4002H196.366H200V47.6056V3.78974V0H196.366Z" fill="#1D1D1B"/>
</g>
<defs>
<clipPath id="clip0_109_528">
<rect width="200" height="55" fill="white"/>
</clipPath>
</defs>
</svg>
