<svg width="80" height="80" viewBox="0 0 80 80" fill="none" xmlns="http://www.w3.org/2000/svg">
<rect width="80" height="80" rx="40" fill="#E30613"/>
<path d="M39.9998 16.25C53.1166 16.25 63.7498 26.8832 63.7498 40C63.7498 53.1168 53.1166 63.75 39.9998 63.75C26.8831 63.75 16.2498 53.1168 16.2498 40C16.2498 26.8832 26.8831 16.25 39.9998 16.25ZM53.3837 26.6161C52.9331 26.1655 52.2241 26.1309 51.7337 26.5121L51.616 26.6161L42.5398 35.6923C41.7954 35.2524 40.9271 35 39.9998 35C37.2384 35 34.9998 37.2386 34.9998 40C34.9998 42.7614 37.2384 45 39.9998 45C42.7613 45 44.9998 42.7614 44.9998 40C44.9998 39.1758 44.8361 38.227 44.3763 37.5L53.3837 28.3839C53.9156 27.8795 53.8343 27.0667 53.3837 26.6161ZM39.9998 37.5C41.3806 37.5 42.4998 38.6193 42.4998 40C42.4998 41.3807 41.3806 42.5 39.9998 42.5C38.6191 42.5 37.4998 41.3807 37.4998 40C37.4998 38.6193 38.6191 37.5 39.9998 37.5ZM54.7719 33.2201C54.4836 32.5928 53.7413 32.3181 53.1141 32.6064C52.4868 32.8947 52.2121 33.637 52.5004 34.2642C53.3199 36.0471 53.7498 37.992 53.7498 40C53.7498 40.6904 54.3095 41.25 54.9998 41.25C55.6902 41.25 56.2498 40.6904 56.2498 40C56.2498 37.6297 55.7412 35.3289 54.7719 33.2201ZM39.9998 23.75C31.0252 23.75 23.7498 31.0254 23.7498 40C23.7498 40.6904 24.3095 41.25 24.9998 41.25C25.6902 41.25 26.2498 40.6904 26.2498 40C26.2498 32.4061 32.4059 26.25 39.9998 26.25C42.0264 26.25 43.9885 26.6879 45.7846 27.5221C46.4107 27.8129 47.154 27.5411 47.4448 26.915C47.7356 26.2888 47.4638 25.5455 46.8377 25.2547C44.7134 24.2681 42.3921 23.75 39.9998 23.75Z" fill="white"/>
</svg>
