<svg width="80" height="80" viewBox="0 0 80 80" fill="none" xmlns="http://www.w3.org/2000/svg">
<rect width="80" height="80" rx="40" fill="#E30613"/>
<path d="M62.7369 28.5086L54.6509 17.5477C54.3968 17.2032 53.9944 17 53.5664 17C53.1384 17 52.736 17.2032 52.4819 17.5477L44.396 28.5086C44.0477 28.9808 44.0402 29.6328 44.403 30.1183C44.6633 30.4666 45.0852 30.6562 45.52 30.6562H49.0742V63H56.7109C57.4552 63 58.0586 62.3966 58.0586 61.6523V30.6562H61.6129C62.0477 30.6562 62.4697 30.4665 62.7299 30.1183C63.0926 29.6328 63.0851 28.9808 62.7369 28.5086Z" fill="white"/>
<path d="M41.5498 36.4961V63H46.3789V35.1484H42.8975C42.1532 35.1484 41.5498 35.7518 41.5498 36.4961Z" fill="white"/>
<path d="M34.0254 41.8867V63H38.8545V40.5391H35.373C34.6288 40.5391 34.0254 41.1425 34.0254 41.8867Z" fill="white"/>
<path d="M26.501 47.2773V63H31.3301V45.9297H27.8486C27.1044 45.9297 26.501 46.5331 26.501 47.2773Z" fill="white"/>
<path d="M18.9766 52.668V61.6523C18.9766 62.3966 19.58 63 20.3242 63H23.8057V51.3203H20.3242C19.58 51.3203 18.9766 51.9237 18.9766 52.668Z" fill="white"/>
<path d="M29.0669 29.0693V31.9552C29.5722 31.6657 29.874 31.1539 29.9559 30.6669C30.0149 30.3156 30.0391 29.4788 29.0669 29.0693Z" fill="white"/>
<path d="M26.7926 25.2528C26.7209 25.6336 26.8118 25.9874 27.0243 26.154C27.0991 26.2127 27.1816 26.2704 27.27 26.3271V24.4482C26.9958 24.6585 26.8447 24.9768 26.7926 25.2528Z" fill="white"/>
<path d="M28.2305 17C22.038 17 17 22.038 17 28.2305C17 34.4229 22.038 39.4609 28.2305 39.4609C34.4229 39.4609 39.4609 34.4229 39.4609 28.2305C39.4609 22.038 34.4229 17 28.2305 17ZM31.7279 30.965C31.5165 32.2223 30.5597 33.4975 29.0668 33.8762V34.5195C29.0668 35.0156 28.6646 35.418 28.1684 35.418C27.6722 35.418 27.2699 35.0156 27.2699 34.5195V33.9623C26.5446 33.8996 25.9432 33.7037 25.0909 33.146C24.6756 32.8744 24.5592 32.3176 24.8308 31.9023C25.1025 31.4871 25.6593 31.3707 26.0745 31.6423C26.5598 31.9597 26.8639 32.0978 27.2699 32.1549V28.3602C26.696 28.0971 26.2671 27.8441 25.9152 27.5681C25.1697 26.9833 24.8293 25.9687 25.0268 24.9202C25.2421 23.7775 26.0375 22.8685 27.1024 22.5477C27.1588 22.5307 27.2146 22.5151 27.2699 22.5005V21.9414C27.2699 21.4453 27.6722 21.043 28.1684 21.043C28.6646 21.043 29.0668 21.4453 29.0668 21.9414V22.4021C29.9391 22.5532 30.5557 22.9825 30.8543 23.3253C31.1801 23.6994 31.141 24.2669 30.7669 24.5928C30.3946 24.917 29.8312 24.88 29.5045 24.5115C29.4841 24.4907 29.3412 24.3533 29.0668 24.252V27.155C29.2263 27.2142 29.3856 27.2717 29.542 27.3269C31.1215 27.8853 31.9999 29.3473 31.7279 30.965Z" fill="white"/>
</svg>
