<svg width="80" height="80" viewBox="0 0 80 80" fill="none" xmlns="http://www.w3.org/2000/svg">
<rect width="80" height="80" rx="40" fill="#E30613"/>
<path d="M65.6252 41.0088H48.2964C47.5391 41.0088 46.9218 41.6261 46.9218 42.3833C46.9218 42.769 47.0857 43.1164 47.3412 43.367L59.5433 55.5691C59.7939 55.8392 60.156 56.0082 60.5516 56.0082C61.0289 56.0082 61.4484 55.767 61.6944 55.4004C64.6944 51.9181 66.6236 47.4955 66.971 42.6292C66.9903 42.5472 66.9998 42.4653 66.9998 42.3831C67 41.6261 66.3873 41.0088 65.6252 41.0088Z" fill="white"/>
<path d="M43.0634 16.0981C42.3061 16.1028 41.6937 16.7155 41.6937 17.4727V36.7308C41.6937 37.4929 42.3061 38.1102 43.0634 38.1102H62.3264C63.0838 38.1102 63.7009 37.4929 63.7009 36.7308C63.0208 25.6478 54.1513 16.7783 43.0634 16.0981Z" fill="white"/>
<path d="M53.6498 54.4453L39.4414 40.2369C39.2004 39.9909 39.0557 39.6484 39.0557 39.2771L39.0506 19.2086C39.0506 18.4514 38.4382 17.8389 37.6809 17.8389C26.1396 18.5431 17 28.131 17 39.8463C17 52.0243 26.8728 61.9017 39.0506 61.9017C44.6067 61.9017 49.6805 59.8472 53.5582 56.4565C53.8573 56.2055 54.0454 55.8296 54.0454 55.4099C54.0454 55.0385 53.8957 54.696 53.6498 54.4453Z" fill="white"/>
</svg>
