<svg width="80" height="80" viewBox="0 0 80 80" fill="none" xmlns="http://www.w3.org/2000/svg">
<rect width="80" height="80" rx="40" fill="#E30613"/>
<g clip-path="url(#clip0_110_667)">
<path d="M40 44.7461C42.6212 44.7461 44.7461 42.6212 44.7461 40C44.7461 37.3788 42.6212 35.2539 40 35.2539C37.3788 35.2539 35.2539 37.3788 35.2539 40C35.2539 42.6212 37.3788 44.7461 40 44.7461Z" fill="white"/>
<path d="M58.1153 40.0001C62.5675 35.5133 65.5718 30.5023 63.2914 26.5527C61.0113 22.6031 55.1733 22.6999 49.0676 24.3095C47.4097 18.1647 44.5705 13 40.0001 13C35.4297 13 32.5909 18.1656 30.9333 24.3095C24.8248 22.6995 18.9879 22.6051 16.7088 26.5527C14.4273 30.5045 17.4345 35.5154 21.885 39.9999C17.4328 44.4867 14.4285 49.4977 16.7088 53.4473C18.9858 57.3912 24.8239 57.2955 30.9317 55.687C32.5894 61.8333 35.4289 67 40.0001 67C44.5703 67 47.409 61.8349 49.0666 55.6913C55.1807 57.3018 61.0146 57.391 63.2914 53.4473C65.573 49.4956 62.5658 44.4846 58.1153 40.0001ZM60.5512 28.1348C61.8531 30.3898 59.5249 34.1025 55.8029 37.8226C54.1592 36.3685 52.4218 35.0063 50.7429 33.7982C50.5366 31.7384 50.2263 29.5492 49.7903 27.3936C54.6731 26.0267 59.1425 25.6947 60.5512 28.1348ZM39.9641 48.9026C36.8978 47.4406 34.7781 46.1693 32.2722 44.4205C32.0058 41.0354 32.0461 38.5615 32.3068 35.5185C35.0908 33.6045 37.2467 32.4035 40.036 31.0974C43.1079 32.5621 45.2266 33.834 47.7279 35.5795C47.9943 38.9647 47.954 41.4385 47.6933 44.4815C44.9094 46.3955 42.7534 47.5965 39.9641 48.9026ZM47.228 48.5704C47.0829 49.5925 46.9132 50.6304 46.7176 51.6597C45.7366 51.3262 44.7478 50.9592 43.7658 50.5665C44.9792 49.926 46.0232 49.3266 47.228 48.5704ZM36.1895 50.5433C35.2311 50.9285 34.2465 51.3001 33.2562 51.6448C33.0559 50.6285 32.8804 49.5893 32.7303 48.5439C33.9438 49.307 34.9865 49.9064 36.1895 50.5433ZM28.9641 41.9718C28.1525 41.3353 27.3391 40.6694 26.5465 39.9852C27.3249 39.3034 28.1361 38.6313 28.9661 37.9781C28.912 39.4049 28.9139 40.6166 28.9641 41.9718ZM32.7722 31.4296C32.9173 30.4075 33.087 29.3695 33.2826 28.3402C34.2635 28.6737 35.2523 29.0407 36.2343 29.4333C35.0035 30.0833 33.9607 30.6836 32.7722 31.4296ZM43.8104 29.4568C44.7689 29.0716 45.7536 28.7 46.744 28.3552C46.9443 29.3715 47.1198 30.4107 47.2698 31.4561C46.0699 30.7015 45.0319 30.1033 43.8104 29.4568ZM51.0361 38.0282C51.8477 38.6647 52.6611 39.3306 53.4537 40.0148C52.6753 40.6966 51.8641 41.3687 51.0341 42.0219C51.0882 40.5951 51.0863 39.3834 51.0361 38.0282ZM40.0001 16.1641C42.6079 16.1641 44.6638 20.0894 46.0255 25.2231C43.9412 25.9202 41.8891 26.7443 40.0005 27.5957C38.1089 26.7429 36.0549 25.9182 33.9692 25.221C35.2311 20.2525 37.1855 16.1641 40.0001 16.1641ZM19.4489 28.1348C20.7505 25.8804 25.1278 26.0396 30.2088 27.402C29.7736 29.5549 29.4638 31.7411 29.2577 33.7975C27.5754 35.0078 25.8358 36.3721 24.1909 37.8279C20.5637 34.2817 18.0397 30.5755 19.4489 28.1348ZM19.4489 51.8652C18.147 49.6102 20.4753 45.8975 24.1973 42.1774C25.841 43.6315 27.5784 44.9937 29.2573 46.2018C29.4636 48.2616 29.7738 50.4508 30.2099 52.6063C25.327 53.9733 20.8576 54.3053 19.4489 51.8652ZM40.0001 63.8359C37.3919 63.8359 35.3356 59.9092 33.9739 54.7743C36.0575 54.0781 38.1088 53.2551 39.9976 52.4044C41.892 53.2588 43.9461 54.0835 46.0308 54.7802C44.7689 59.7481 42.8146 63.8359 40.0001 63.8359ZM60.5512 51.8652C59.2496 54.1196 54.8722 53.9603 49.7914 52.598C50.2266 50.4451 50.5364 48.2589 50.7425 46.2025C52.4248 44.9922 54.1644 43.6278 55.8094 42.1721C59.4365 45.7183 61.9605 49.4245 60.5512 51.8652Z" fill="white"/>
</g>
<defs>
<clipPath id="clip0_110_667">
<rect width="54" height="54" fill="white" transform="translate(13 13)"/>
</clipPath>
</defs>
</svg>
