<svg width="18" height="18" viewBox="0 0 18 18" fill="none" xmlns="http://www.w3.org/2000/svg">
<g clip-path="url(#clip0_115_151)">
<path d="M6.03379 9.00178C6.03379 10.658 7.37713 12.0012 9.03323 12.0012C10.6895 12.0012 12.0327 10.658 12.0327 9.00178C12.0327 7.34554 10.6895 6.00234 9.03323 6.00234C7.37713 6.00234 6.03379 7.34554 6.03379 9.00178Z" fill="white"/>
<path fill-rule="evenodd" clip-rule="evenodd" d="M17.9825 5.29205C17.9403 4.33564 17.7857 3.67812 17.5641 3.10836C17.3356 2.50359 16.9839 1.96213 16.5232 1.51201C16.0731 1.05489 15.5281 0.699691 14.9303 0.474702C14.3573 0.253147 13.7032 0.0984842 12.7468 0.0563159C11.7832 0.0105764 11.4773 0 9.03349 0C6.58966 0 6.28376 0.0105764 5.32378 0.0527447C4.36737 0.094913 3.70985 0.249713 3.14024 0.471131C2.53532 0.699691 1.99387 1.05132 1.54375 1.51201C1.08663 1.96213 0.731566 2.50716 0.50644 3.10493C0.284885 3.67812 0.130222 4.33207 0.0880542 5.28848C0.0423147 6.25203 0.0317383 6.55792 0.0317383 9.00176C0.0317383 11.4456 0.0423147 11.7515 0.0844829 12.7115C0.126651 13.6679 0.281451 14.3254 0.503006 14.8952C0.731566 15.4999 1.08663 16.0414 1.54375 16.4915C1.99387 16.9486 2.53889 17.3038 3.13667 17.5288C3.70985 17.7504 4.3638 17.905 5.32035 17.9472C6.28019 17.9895 6.58622 17.9999 9.03006 17.9999C11.4739 17.9999 11.7798 17.9895 12.7398 17.9472C13.6962 17.905 14.3537 17.7504 14.9233 17.5288C16.133 17.0611 17.0894 16.1047 17.5571 14.8952C17.7785 14.322 17.9333 13.6679 17.9755 12.7115C18.0177 11.7515 18.0282 11.4456 18.0282 9.00176C18.0282 6.55792 18.0247 6.25203 17.9825 5.29205ZM14.9197 4.19491C14.9197 4.79104 14.4364 5.27439 13.8401 5.27439C13.244 5.27439 12.7606 4.79104 12.7606 4.19491C12.7606 3.59865 13.244 3.11543 13.8401 3.11543C14.4364 3.11543 14.9197 3.59865 14.9197 4.19491ZM4.40928 9.00178C4.40928 6.44888 6.48047 4.37783 9.03323 4.37783C11.5861 4.37783 13.6572 6.44888 13.6572 9.00178C13.6572 11.5547 11.5861 13.6257 9.03323 13.6257C6.48047 13.6257 4.40928 11.5547 4.40928 9.00178Z" fill="white"/>
</g>
<defs>
<clipPath id="clip0_115_151">
<rect width="18" height="18" fill="white"/>
</clipPath>
</defs>
</svg>
