<svg width="80" height="80" viewBox="0 0 80 80" fill="none" xmlns="http://www.w3.org/2000/svg">
<rect width="80" height="80" rx="40" fill="#E30613"/>
<g clip-path="url(#clip0_129_534)">
<path d="M40 20.4902C39.103 20.4902 38.375 19.7622 38.375 18.8652V14.625C38.375 13.728 39.103 13 40 13C40.897 13 41.625 13.728 41.625 14.625V18.8652C41.625 19.7622 40.897 20.4902 40 20.4902Z" fill="white"/>
<path d="M54.2372 26.3877C53.8212 26.3877 53.4052 26.2296 53.0889 25.9111C52.4541 25.2762 52.4541 24.2471 53.0889 23.6122L56.0876 20.6136C56.7224 19.9787 57.7516 19.9787 58.3864 20.6136C59.0212 21.2484 59.0212 22.2776 58.3864 22.9124L55.3877 25.9111C55.0692 26.2274 54.6532 26.3877 54.2372 26.3877Z" fill="white"/>
<path d="M64.3749 40.625H60.1348C59.2378 40.625 58.5098 39.897 58.5098 39C58.5098 38.103 59.2378 37.375 60.1348 37.375H64.3749C65.2719 37.375 65.9999 38.103 65.9999 39C65.9999 39.897 65.2719 40.625 64.3749 40.625Z" fill="white"/>
<path d="M57.2359 57.8609C56.8199 57.8609 56.4039 57.7027 56.0876 57.3842L53.0889 54.3855C52.4541 53.7507 52.4541 52.7216 53.0889 52.0867C53.7237 51.4519 54.7529 51.4519 55.3877 52.0867L58.3864 55.0854C59.0212 55.7202 59.0212 56.7494 58.3864 57.3842C58.0679 57.7027 57.6519 57.8609 57.2359 57.8609Z" fill="white"/>
<path d="M22.7641 57.8609C22.3481 57.8609 21.9321 57.7027 21.6158 57.3842C20.9809 56.7494 20.9809 55.7202 21.6158 55.0854L24.6144 52.0867C25.2493 51.4519 26.2784 51.4519 26.9133 52.0867C27.5481 52.7216 27.5481 53.7507 26.9133 54.3855L23.9146 57.3842C23.5961 57.7027 23.1801 57.8609 22.7641 57.8609Z" fill="white"/>
<path d="M19.8652 40.625H15.625C14.728 40.625 14 39.897 14 39C14 38.103 14.728 37.375 15.625 37.375H19.8652C20.7622 37.375 21.4902 38.103 21.4902 39C21.4902 39.897 20.7622 40.625 19.8652 40.625Z" fill="white"/>
<path d="M25.7628 26.3877C25.3468 26.3877 24.9308 26.2296 24.6144 25.9111L21.6158 22.9124C20.9809 22.2776 20.9809 21.2484 21.6158 20.6136C22.2506 19.9787 23.2798 19.9787 23.9146 20.6136L26.9133 23.6122C27.5481 24.2471 27.5481 25.2762 26.9133 25.9111C26.5926 26.2274 26.1788 26.3877 25.7628 26.3877Z" fill="white"/>
<path d="M46.5 58.5V61.2083C46.5 63.2883 44.7883 65 42.7083 65H37.2917C35.4717 65 33.5 63.6133 33.5 60.58V58.5H46.5Z" fill="white"/>
<path d="M49.555 27.2135C46.0017 24.3318 41.3217 23.2051 36.75 24.1801C31.0084 25.3718 26.35 30.0518 25.1584 35.7935C23.945 41.6868 26.155 47.5368 30.8784 51.1118C32.1567 52.0651 33.045 53.5385 33.3484 55.2501V55.2718C33.3917 55.2501 33.4567 55.2501 33.5 55.2501H46.5C46.5434 55.2501 46.565 55.2501 46.6084 55.2718V55.2501C46.9117 53.6035 47.8867 52.0868 49.3817 50.9168C53.0434 48.0135 55.1667 43.6801 55.1667 39.0001C55.1667 34.4068 53.13 30.1168 49.555 27.2135ZM48.125 40.0835C47.2367 40.0835 46.5 39.3468 46.5 38.4585C46.5 35.1651 43.835 32.5001 40.5417 32.5001C39.6534 32.5001 38.9167 31.7635 38.9167 30.8751C38.9167 29.9868 39.6534 29.2501 40.5417 29.2501C45.6117 29.2501 49.75 33.3885 49.75 38.4585C49.75 39.3468 49.0134 40.0835 48.125 40.0835Z" fill="white"/>
<path d="M33.3481 55.25H33.4998C33.4565 55.25 33.3915 55.25 33.3481 55.2717V55.25Z" fill="white"/>
<path d="M46.6083 55.25V55.2717C46.565 55.25 46.5433 55.25 46.5 55.25H46.6083Z" fill="white"/>
</g>
<defs>
<clipPath id="clip0_129_534">
<rect width="52" height="52" fill="white" transform="translate(14 13)"/>
</clipPath>
</defs>
</svg>
