<svg width="80" height="80" viewBox="0 0 80 80" fill="none" xmlns="http://www.w3.org/2000/svg">
<rect width="80" height="80" rx="40" fill="#E30613"/>
<path d="M60.3668 54.2999L50.6168 44.5499C52.1335 41.9499 53.0002 38.9166 53.0002 35.6666C53.0002 26.1333 45.2002 18.3333 35.6668 18.3333C26.1335 18.3333 18.3335 26.1333 18.3335 35.6666C18.3335 45.1999 26.1335 52.9999 35.6668 52.9999C38.9168 52.9999 41.9502 52.1332 44.5502 50.6166L54.3002 60.3666C56.0335 62.0999 58.6335 62.0999 60.3668 60.3666C62.1002 58.6332 62.1002 56.0332 60.3668 54.2999ZM35.6668 46.4999C29.6002 46.4999 24.8335 41.7332 24.8335 35.6666C24.8335 29.5999 29.6002 24.8333 35.6668 24.8333C41.7335 24.8333 46.5002 29.5999 46.5002 35.6666C46.5002 41.7332 41.7335 46.4999 35.6668 46.4999Z" fill="white"/>
</svg>
