<svg width="80" height="80" viewBox="0 0 80 80" fill="none" xmlns="http://www.w3.org/2000/svg">
<rect width="80" height="80" rx="40" fill="#E30613"/>
<path d="M48.8594 29.875L53.1625 24.1375C53.3505 23.8868 53.465 23.5887 53.4932 23.2765C53.5213 22.9644 53.462 22.6506 53.3218 22.3703C53.1817 22.09 52.9663 21.8543 52.6997 21.6895C52.4331 21.5248 52.1259 21.4375 51.8125 21.4375H33.25V19.75C33.25 19.3024 33.0722 18.8732 32.7557 18.5568C32.4393 18.2403 32.0101 18.0625 31.5625 18.0625C31.1149 18.0625 30.6857 18.2403 30.3693 18.5568C30.0528 18.8732 29.875 19.3024 29.875 19.75V58.5625H28.1875C27.7399 58.5625 27.3107 58.7403 26.9943 59.0568C26.6778 59.3732 26.5 59.8024 26.5 60.25C26.5 60.6976 26.6778 61.1268 26.9943 61.4432C27.3107 61.7597 27.7399 61.9375 28.1875 61.9375H34.9375C35.3851 61.9375 35.8143 61.7597 36.1307 61.4432C36.4472 61.1268 36.625 60.6976 36.625 60.25C36.625 59.8024 36.4472 59.3732 36.1307 59.0568C35.8143 58.7403 35.3851 58.5625 34.9375 58.5625H33.25V38.3125H51.8125C52.1259 38.3125 52.4331 38.2252 52.6997 38.0605C52.9663 37.8957 53.1817 37.66 53.3218 37.3797C53.462 37.0994 53.5213 36.7856 53.4932 36.4735C53.465 36.1613 53.3505 35.8632 53.1625 35.6125L48.8594 29.875Z" fill="white"/>
</svg>
