<svg width="80" height="80" viewBox="0 0 80 80" fill="none" xmlns="http://www.w3.org/2000/svg">
<rect width="80" height="80" rx="40" fill="#E30613"/>
<g clip-path="url(#clip0_129_560)">
<path d="M40 44.7461C42.6212 44.7461 44.7461 42.6212 44.7461 40C44.7461 37.3788 42.6212 35.2539 40 35.2539C37.3788 35.2539 35.2539 37.3788 35.2539 40C35.2539 42.6212 37.3788 44.7461 40 44.7461Z" fill="white"/>
<path d="M58.1154 40.0001C62.5676 35.5133 65.572 30.5023 63.2915 26.5527C61.0114 22.6031 55.1734 22.6999 49.0677 24.3095C47.4098 18.1647 44.5706 13 40.0002 13C35.4298 13 32.591 18.1656 30.9334 24.3095C24.825 22.6995 18.988 22.6051 16.7089 26.5527C14.4274 30.5045 17.4347 35.5154 21.8851 39.9999C17.433 44.4867 14.4286 49.4977 16.7089 53.4473C18.9859 57.3912 24.824 57.2955 30.9318 55.687C32.5896 61.8333 35.429 67 40.0002 67C44.5704 67 47.4091 61.8349 49.0667 55.6913C55.1809 57.3018 61.0148 57.391 63.2915 53.4473C65.5731 49.4956 62.5659 44.4846 58.1154 40.0001ZM60.5513 28.1348C61.8532 30.3898 59.525 34.1025 55.803 37.8226C54.1593 36.3685 52.4219 35.0063 50.7431 33.7982C50.5368 31.7384 50.2265 29.5492 49.7905 27.3936C54.6732 26.0267 59.1426 25.6947 60.5513 28.1348ZM39.9643 48.9026C36.898 47.4406 34.7783 46.1693 32.2723 44.4205C32.0059 41.0354 32.0462 38.5615 32.3069 35.5185C35.091 33.6045 37.2469 32.4035 40.0361 31.0974C43.1081 32.5621 45.2267 33.834 47.728 35.5795C47.9944 38.9647 47.9541 41.4385 47.6934 44.4815C44.9095 46.3955 42.7535 47.5965 39.9643 48.9026ZM47.2281 48.5704C47.083 49.5925 46.9133 50.6304 46.7177 51.6597C45.7368 51.3262 44.7479 50.9592 43.7659 50.5665C44.9793 49.926 46.0233 49.3266 47.2281 48.5704ZM36.1896 50.5433C35.2312 50.9285 34.2466 51.3001 33.2563 51.6448C33.0561 50.6285 32.8806 49.5893 32.7305 48.5439C33.9439 49.307 34.9867 49.9064 36.1896 50.5433ZM28.9642 41.9718C28.1526 41.3353 27.3392 40.6694 26.5466 39.9852C27.325 39.3034 28.1363 38.6313 28.9662 37.9781C28.9121 39.4049 28.914 40.6166 28.9642 41.9718ZM32.7723 31.4296C32.9175 30.4075 33.0872 29.3695 33.2827 28.3402C34.2637 28.6737 35.2524 29.0407 36.2345 29.4333C35.0036 30.0833 33.9609 30.6836 32.7723 31.4296ZM43.8105 29.4568C44.769 29.0716 45.7537 28.7 46.7441 28.3552C46.9444 29.3715 47.1199 30.4107 47.27 31.4561C46.0701 30.7015 45.032 30.1033 43.8105 29.4568ZM51.0363 38.0282C51.8478 38.6647 52.6612 39.3306 53.4538 40.0148C52.6755 40.6966 51.8642 41.3687 51.0343 42.0219C51.0884 40.5951 51.0865 39.3834 51.0363 38.0282ZM40.0002 16.1641C42.608 16.1641 44.6639 20.0894 46.0257 25.2231C43.9413 25.9202 41.8893 26.7443 40.0006 27.5957C38.1091 26.7429 36.0551 25.9182 33.9693 25.221C35.2312 20.2525 37.1856 16.1641 40.0002 16.1641ZM19.449 28.1348C20.7506 25.8804 25.128 26.0396 30.2089 27.402C29.7738 29.5549 29.4639 31.7411 29.2578 33.7975C27.5755 35.0078 25.8359 36.3721 24.191 37.8279C20.5638 34.2817 18.0398 30.5755 19.449 28.1348ZM19.449 51.8652C18.1471 49.6102 20.4754 45.8975 24.1974 42.1774C25.8411 43.6315 27.5785 44.9937 29.2574 46.2018C29.4637 48.2616 29.774 50.4508 30.21 52.6063C25.3271 53.9733 20.8577 54.3053 19.449 51.8652ZM40.0002 63.8359C37.392 63.8359 35.3358 59.9092 33.9741 54.7743C36.0576 54.0781 38.109 53.2551 39.9977 52.4044C41.8921 53.2588 43.9462 54.0835 46.0309 54.7802C44.769 59.7481 42.8148 63.8359 40.0002 63.8359ZM60.5513 51.8652C59.2497 54.1196 54.8724 53.9603 49.7915 52.598C50.2267 50.4451 50.5365 48.2589 50.7426 46.2025C52.425 44.9922 54.1646 43.6278 55.8096 42.1721C59.4366 45.7183 61.9606 49.4245 60.5513 51.8652Z" fill="white"/>
</g>
<defs>
<clipPath id="clip0_129_560">
<rect width="54" height="54" fill="white" transform="translate(13 13)"/>
</clipPath>
</defs>
</svg>
