<svg width="64" height="64" viewBox="0 0 64 64" fill="none" xmlns="http://www.w3.org/2000/svg">
<rect width="64" height="64" rx="32" fill="#E30613"/>
<g clip-path="url(#clip0_129_808)">
<path d="M48.3203 38.7729L36.4087 18.141C34.4631 14.7326 29.5431 14.7326 27.6044 18.141L15.6858 38.7729C13.7402 42.1812 16.1617 46.4153 20.0879 46.4153H43.8762C47.8024 46.4153 50.2659 42.1392 48.3203 38.7729ZM31.9996 41.8382C30.9638 41.8382 30.1029 40.9774 30.1029 39.9416C30.1029 38.9058 30.9638 38.045 31.9996 38.045C33.0354 38.045 33.8962 38.9058 33.8542 39.9906C33.9032 40.9774 32.9934 41.8382 31.9996 41.8382ZM33.7282 29.5767C33.6442 31.0464 33.5533 32.5091 33.4693 33.9788C33.4273 34.4547 33.4273 34.8886 33.4273 35.3575C33.3853 36.1344 32.7764 36.7363 31.9996 36.7363C31.2227 36.7363 30.6208 36.1764 30.5718 35.3995C30.4459 33.111 30.3129 30.8644 30.1869 28.5759C30.1449 27.974 30.1029 27.3651 30.054 26.7632C30.054 25.7694 30.6138 24.9506 31.5237 24.6917C32.4335 24.4747 33.3363 24.9086 33.7282 25.7694C33.8612 26.0704 33.9032 26.3713 33.9032 26.7212C33.8612 27.6801 33.7702 28.6319 33.7282 29.5767Z" fill="white"/>
</g>
<defs>
<clipPath id="clip0_129_808">
<rect width="34" height="34" fill="white" transform="translate(15 14)"/>
</clipPath>
</defs>
</svg>
