<svg width="18" height="18" viewBox="0 0 18 18" fill="none" xmlns="http://www.w3.org/2000/svg">
<path fill-rule="evenodd" clip-rule="evenodd" d="M18 6.24C18 1.2 16.8 0 11.76 0H6.24C1.2 0 0 1.2 0 6.24V11.76C0 16.8 1.2 18 6.24 18H11.76C16.8 18 18 16.8 18 11.76V6.24ZM3.37507 5.625H4.68757C5.02301 5.625 5.14918 5.77181 5.27498 6.13526C5.9169 8.00517 6.99923 9.63933 7.44418 9.63933C7.61104 9.63933 7.68757 9.5625 7.68757 9.13874V7.20594C7.65744 6.65576 7.46526 6.41783 7.32291 6.2416C7.235 6.13277 7.1661 6.04746 7.1661 5.92668C7.1661 5.77989 7.29152 5.625 7.50007 5.625H9.56257C9.8407 5.625 9.93755 5.77373 9.93755 6.10746V8.70768C9.93755 8.98577 10.0583 9.0831 10.1417 9.0831C10.3086 9.0831 10.4477 8.98577 10.7536 8.67986C11.6991 7.62309 12.3665 5.99619 12.3665 5.99619C12.45 5.80153 12.6038 5.625 12.9376 5.625H14.2501C14.647 5.625 14.7304 5.82935 14.647 6.10746C14.492 6.81759 13.1022 8.81062 12.9044 9.09171L12.881 9.12483C12.742 9.34729 12.6864 9.45856 12.881 9.70882C12.9496 9.80481 13.0959 9.9481 13.2632 10.112C13.4354 10.2806 13.6298 10.4711 13.7849 10.6544C14.3487 11.2886 14.7735 11.8237 14.8919 12.1925C15.0001 12.5625 14.8126 12.75 14.4376 12.75H13.1251C12.7735 12.75 12.5965 12.5531 12.214 12.1276C12.0518 11.9472 11.8528 11.7258 11.5879 11.4609C10.8092 10.71 10.4755 10.6127 10.2808 10.6127C10.0166 10.6127 9.93757 10.6875 9.93757 11.0625V12.2395C9.93757 12.5625 9.83436 12.75 9.00007 12.75C7.60957 12.75 6.08148 11.9058 4.9969 10.3485C3.37003 8.06806 2.92506 6.34383 2.92506 5.99619C2.92506 5.80153 3.00007 5.625 3.37507 5.625Z" fill="white"/>
</svg>
